<svg version="1.1" id="Layer_1" xmlns="http://www.w3.org/2000/svg" xmlns:xlink="http://www.w3.org/1999/xlink" x="0px" y="0px"
	 width="100%" viewBox="0 0 140 140" enable-background="new 0 0 140 140" xml:space="preserve">
<path fill="#010202" opacity="1.000000" stroke="none" 
	d="
M79.000000,141.000000 
	C73.311958,141.000000 67.623917,141.000000 61.339073,140.635208 
	C33.094833,134.820602 13.996346,119.325363 4.628524,92.444069 
	C3.312129,88.666626 2.204345,84.816490 0.999999,81.000000 
	C1.000000,74.645599 1.000000,68.291206 1.369430,61.341904 
	C6.876213,34.061581 21.744400,15.300879 47.199104,5.350969 
	C51.970600,3.485854 57.058247,2.429546 62.000000,0.999999 
	C67.354927,1.000000 72.709862,1.000000 78.680222,1.379467 
	C104.406525,5.161573 122.691048,18.323683 133.851212,40.914459 
	C137.109711,47.510429 138.664368,54.948120 141.000000,62.000000 
	C141.000000,68.021156 141.000000,74.042305 140.633087,80.654556 
	C134.771393,108.855194 119.338326,128.041824 92.448929,137.384003 
	C88.075134,138.903580 83.488342,139.810120 79.000000,141.000000 
M50.626316,68.258034 
	C49.723217,67.430161 48.122154,66.665085 48.041027,65.763268 
	C47.733116,62.340538 47.917011,58.873562 47.917011,54.797421 
	C56.855408,54.797421 65.390472,54.797421 73.780167,54.797421 
	C73.780167,50.909344 73.780167,47.665462 73.780167,44.396873 
	C60.709351,44.396873 47.987572,44.396873 35.181980,44.396873 
	C35.181980,64.042351 35.181980,83.378746 35.181980,102.647743 
	C39.580544,102.647743 43.634949,102.647743 47.997818,102.647743 
	C47.997818,94.691315 47.997818,87.098320 47.997818,78.916473 
	C56.003834,78.916473 63.706196,78.916473 71.354965,78.916473 
	C71.354965,75.080009 71.354965,71.856522 71.354965,68.260338 
	C64.526764,68.260338 58.067329,68.260338 50.626316,68.258034 
M116.197311,102.315971 
	C116.201706,94.984192 116.437660,87.643265 116.148613,80.323067 
	C115.827385,72.188194 113.237999,64.231300 104.670044,62.336803 
	C95.487434,60.306404 85.775932,60.667973 76.276939,59.984303 
	C76.276939,75.495140 76.276939,89.580666 76.276939,103.710602 
	C80.158226,103.710602 83.729568,103.710602 87.919220,103.710602 
	C87.919220,92.378578 87.919220,81.330750 87.919220,70.097168 
	C90.032845,70.097168 91.520866,70.063690 93.006996,70.102791 
	C100.676384,70.304588 103.489716,72.719086 104.550812,80.317329 
	C104.894196,82.776230 104.810524,85.301933 104.827888,87.797729 
	C104.864571,93.071930 104.839058,98.346558 104.839058,104.328377 
	C108.982597,103.938370 112.520409,103.605385 116.197311,102.315971 
z"/>
<path fill="#FDFDFD" opacity="1.000000" stroke="none" 
	d="
M141.000000,61.531342 
	C138.664368,54.948120 137.109711,47.510429 133.851212,40.914459 
	C122.691048,18.323683 104.406525,5.161573 79.147827,1.379467 
	C99.592888,1.000000 120.185768,1.000000 141.000000,1.000000 
	C141.000000,21.020351 141.000000,41.041515 141.000000,61.531342 
z"/>
<path fill="#FDFDFD" opacity="1.000000" stroke="none" 
	d="
M79.468658,141.000000 
	C83.488342,139.810120 88.075134,138.903580 92.448929,137.384003 
	C119.338326,128.041824 134.771393,108.855194 140.633087,81.122833 
	C141.000000,100.928017 141.000000,120.856026 141.000000,141.000000 
	C120.646278,141.000000 100.291801,141.000000 79.468658,141.000000 
z"/>
<path fill="#FDFDFD" opacity="1.000000" stroke="none" 
	d="
M0.999999,81.468658 
	C2.204345,84.816490 3.312129,88.666626 4.628524,92.444069 
	C13.996346,119.325363 33.094833,134.820602 60.871132,140.635208 
	C41.073189,141.000000 21.146378,141.000000 1.000000,141.000000 
	C1.000000,121.312981 1.000000,101.625153 0.999999,81.468658 
z"/>
<path fill="#FDFDFD" opacity="1.000000" stroke="none" 
	d="
M61.531342,0.999999 
	C57.058247,2.429546 51.970600,3.485854 47.199104,5.350969 
	C21.744400,15.300879 6.876213,34.061581 1.369430,60.873497 
	C1.000000,41.072586 1.000000,21.145168 1.000000,1.000000 
	C21.020369,1.000000 41.041527,1.000000 61.531342,0.999999 
z"/>
<path fill="#F5F5F5" opacity="1.000000" stroke="none" 
	d="
M51.117104,68.259186 
	C58.067329,68.260338 64.526764,68.260338 71.354965,68.260338 
	C71.354965,71.856522 71.354965,75.080009 71.354965,78.916473 
	C63.706196,78.916473 56.003834,78.916473 47.997818,78.916473 
	C47.997818,87.098320 47.997818,94.691315 47.997818,102.647743 
	C43.634949,102.647743 39.580544,102.647743 35.181980,102.647743 
	C35.181980,83.378746 35.181980,64.042351 35.181980,44.396873 
	C47.987572,44.396873 60.709351,44.396873 73.780167,44.396873 
	C73.780167,47.665462 73.780167,50.909344 73.780167,54.797421 
	C65.390472,54.797421 56.855408,54.797421 47.917011,54.797421 
	C47.917011,58.873562 47.733116,62.340538 48.041027,65.763268 
	C48.122154,66.665085 49.723217,67.430161 51.117104,68.259186 
z"/>
<path fill="#37B8F2" opacity="1.000000" stroke="none" 
	d="
M116.127762,102.794182 
	C112.520409,103.605385 108.982597,103.938370 104.839058,104.328377 
	C104.839058,98.346558 104.864571,93.071930 104.827888,87.797729 
	C104.810524,85.301933 104.894196,82.776230 104.550812,80.317329 
	C103.489716,72.719086 100.676384,70.304588 93.006996,70.102791 
	C91.520866,70.063690 90.032845,70.097168 87.919220,70.097168 
	C87.919220,81.330750 87.919220,92.378578 87.919220,103.710602 
	C83.729568,103.710602 80.158226,103.710602 76.276939,103.710602 
	C76.276939,89.580666 76.276939,75.495140 76.276939,59.984303 
	C85.775932,60.667973 95.487434,60.306404 104.670044,62.336803 
	C113.237999,64.231300 115.827385,72.188194 116.148613,80.323067 
	C116.437660,87.643265 116.201706,94.984192 116.127762,102.794182 
z"/>
</svg>