<svg xmlns="http://www.w3.org/2000/svg" width="800" height="654.781" viewBox="0 0 800 654.781" xmlns:xlink="http://www.w3.org/1999/xlink" role="img" artist="Katerina Limpitsouni" source="https://undraw.co/"><g transform="translate(-57 -58.609)"><path d="M765.21,654.781H34.789A34.969,34.969,0,0,1,0,619.712V35.067A34.969,34.969,0,0,1,34.789,0H765.21A34.969,34.969,0,0,1,800,35.067V619.712a34.969,34.969,0,0,1-34.79,35.068Z" transform="translate(57 58.609)" fill="#090814"/><path d="M731.959,622.255H36.27A33.174,33.174,0,0,1,3.134,589.123V36.664A33.174,33.174,0,0,1,36.27,3.527H731.959A33.174,33.174,0,0,1,765.1,36.663v552.46a33.174,33.174,0,0,1-33.141,33.132Z" transform="translate(58.865 61.473)" fill="#fff"/><g transform="translate(-0.135 -8.395)"><g transform="translate(257.135 290.61)"><path d="M602.674,732.937h-31.64V489.426h25.729a4.714,4.714,0,0,1,4.714,4.691Z" transform="translate(-230.206 -402.087)" fill="#d6d6e3"/><path d="M649.631,718.2H309.863V544.774H649.631Z" transform="translate(-305.847 -386.057)" fill="#fff"/><path d="M515.568,717.406h-205.2V545.274h338.48v38.864A133.426,133.426,0,0,1,515.568,717.406Z" transform="translate(-305.703 -385.912)" fill="#f2f2f2"/><path d="M672.869,496.342h0a4.721,4.721,0,0,0-.394,1.018l-11.717,45.161-12.708,24.067H310.867v-6l19.2-18.074,22.4-42.835a19.11,19.11,0,0,1,3.841-5.065h0a19.118,19.118,0,0,1,13.1-5.194H668.711a4.714,4.714,0,0,1,4.169,6.916Z" transform="translate(-305.554 -402.087)" fill="#f2f2f2"/><path d="M649.631,718.2H309.863V544.774H649.631Zm-337.182-2.58h334.6V547.354h-334.6Z" transform="translate(-305.847 -386.057)" fill="#e6e6e6"/><path d="M382.043,292.9l-6.26,23.077H45.084L55.77,296.77Z" transform="translate(-20.58 -175.539)" fill="#d6d6e3"/><path d="M1.5,0H52.665a1.5,1.5,0,0,1,0,3H1.5a1.5,1.5,0,0,1,0-3Z" transform="translate(16.544 249.593)" fill="#090814"/><path d="M1.5,0H52.665a1.5,1.5,0,0,1,0,3H1.5a1.5,1.5,0,0,1,0-3Z" transform="translate(16.544 260.083)" fill="#090814"/><path d="M1.5,0H52.665a1.5,1.5,0,0,1,0,3H1.5a1.5,1.5,0,0,1,0-3Z" transform="translate(16.544 270.574)" fill="#090814"/><circle cx="19.482" cy="19.482" r="19.482" transform="translate(18.043 177.239)" fill="#fff"/><path d="M505.14,549.05H488.587V421.7h13.457a2.465,2.465,0,0,1,2.465,2.452Z" transform="translate(-254.087 -421.703)" fill="#d6d6e3"/><path d="M529.695,541.335H352.01V450.652H529.695Z" transform="translate(-293.64 -413.315)" fill="#fff"/><path d="M459.584,540.926H352.272V450.909H529.28v20.316a69.776,69.776,0,0,1-69.7,69.7Z" transform="translate(-293.566 -413.243)" fill="#f2f2f2"/><path d="M541.845,425.313h0a2.462,2.462,0,0,0-.207.54l-6.127,23.617-6.646,12.595H352.537v-3.134l10.04-9.452,11.711-22.4a10,10,0,0,1,2.008-2.648h0a10,10,0,0,1,6.85-2.717H539.67a2.465,2.465,0,0,1,2.181,3.617Z" transform="translate(-293.487 -421.693)" fill="#f2f2f2"/><path d="M529.695,541.335H352.01V450.652H529.695Zm-176.328-1.349H528.352V452H353.359Z" transform="translate(-293.64 -413.315)" fill="#e6e6e6"/><path d="M255.868,214.071l-3.273,12.068H79.653l5.589-10.045Z" transform="translate(-10.568 -198.37)" fill="#d6d6e3"/><rect width="28.324" height="1.567" transform="translate(64.923 84.852)" fill="#fff"/><rect width="28.324" height="1.567" transform="translate(64.923 90.338)" fill="#fff"/><rect width="28.324" height="1.567" transform="translate(64.923 95.824)" fill="#fff"/><circle cx="10.187" cy="10.187" r="10.187" transform="translate(65.706 47.015)" fill="#fff"/><path d="M352.629,449.849a44.8,44.8,0,0,0-45.865,43.722c-.594,24.736,17.019,76.778,42.493,96.712,7.341-43.163,43.942-71.611,47.087-94.56C399.7,471.2,377.372,450.443,352.629,449.849Z" transform="translate(-306.749 -413.553)" fill="#6c63ff"/><circle cx="14.612" cy="14.612" r="14.612" transform="translate(26.667 62.297)" fill="#fff"/><circle cx="9.57" cy="9.57" r="9.57" transform="translate(26.199 179.29)" fill="#6c63ff"/><path d="M350.246,472.734A14.612,14.612,0,1,1,337.471,499a14.61,14.61,0,0,0,8.277-27.628,14.611,14.611,0,0,1,4.5,1.358Z" transform="translate(-297.849 -407.317)" fill="#231f20" opacity="0.2" style="isolation:isolate"/><path d="M388.358,495.617c-3.145,22.943-39.744,51.4-47.087,94.56a61.993,61.993,0,0,1-6.744-6.191c8.937-40.752,43.2-68.068,46.241-90.233,2.719-19.839-11.393-37.214-29.985-43.436C372.935,453.845,391.439,473.151,388.358,495.617Z" transform="translate(-298.705 -413.413)" fill="#231f20" opacity="0.2" style="isolation:isolate"/></g><g transform="translate(-485.865 -130.605)"><path d="M19.457,0A19.457,19.457,0,1,1,0,19.457,19.457,19.457,0,0,1,19.457,0Z" transform="translate(743 274)" fill="#6c63ff"/><path d="M19.457,0A19.457,19.457,0,1,1,0,19.457,19.457,19.457,0,0,1,19.457,0Z" transform="translate(826.389 274)" fill="#6c63ff"/><path d="M19.457,0A19.457,19.457,0,1,1,0,19.457,19.457,19.457,0,0,1,19.457,0Z" transform="translate(993.166 274)" fill="#e6e6e6"/><path d="M19.457,0A19.457,19.457,0,1,1,0,19.457,19.457,19.457,0,0,1,19.457,0Z" transform="translate(1076.554 274)" fill="#e6e6e6"/><path d="M0,0H187.5V11.118H0Z" transform="translate(759.678 287.898)" fill="#6c63ff"/><path d="M0,0H158.438V11.118H0Z" transform="translate(941.743 287.898)" fill="#e6e6e6"/><path d="M19.457,0A19.457,19.457,0,1,1,0,19.457,19.457,19.457,0,0,1,19.457,0Z" transform="translate(909.777 274)" fill="#6c63ff"/></g></g></g></svg>